<svg width="371" height="423" viewBox="0 0 371 423" fill="none" xmlns="http://www.w3.org/2000/svg">
<path d="M244.756 80.0562C242.396 87.099 238.879 93.709 234.345 99.6206C231.197 103.863 231.524 107.955 232.831 112.606C230.365 113.983 227.54 114.602 224.717 114.383C222.046 114.139 219.409 113.609 216.854 112.8C215.225 112.463 213.684 111.8 212.324 110.851C213.674 108.881 215.667 105.058 215.003 102.549C214.338 100.041 211.028 99.0177 209.862 96.4335C208.697 93.8493 208.697 91.0497 208.719 88.2287C208.773 82.4896 208.904 76.686 210.494 71.1623C212.084 65.6386 215.319 60.3947 220.296 57.4659C228.485 52.6852 239.3 57.2183 244.353 64.5079C246.956 68.2765 246.531 73.6495 245.192 78.5056C245.068 79.0153 244.923 79.5322 244.756 80.0562Z" fill="#DDC69B"/>
<path d="M239.278 90.5653C241.498 85.9373 242.743 80.9109 242.937 75.7922C239.67 75.7922 236.348 75.7923 233.386 74.5325C229.672 72.9066 227.091 69.4286 223.519 67.4905C217.203 64.0664 210.45 66.4138 203.916 67.3613C205.942 51.8346 231.546 45.9125 242.131 56.1093C245.94 60.0265 248.497 64.9662 249.482 70.3116C250.571 75.5015 250.571 81.0791 248.393 85.946C246.215 90.8129 241.728 94.8399 236.414 95.4752C237.492 93.9123 238.45 92.271 239.278 90.5653Z" fill="#003556"/>
<g style="mix-blend-mode:multiply">
<path d="M10.5095 272.309C2.48308 283.744 0.0109031 300.1 8.21154 311.427C12.6222 317.522 19.4724 321.441 26.4533 324.348C42.2753 330.997 59.5568 333.525 76.6482 331.692C81.5054 331.153 87.4626 330.733 90.1635 334.75C91.2525 336.408 91.5248 338.475 92.2 340.338C93.997 345.323 98.7344 348.672 103.374 351.245C114.919 357.431 127.777 360.836 140.903 361.184C158.241 361.797 155.224 366.427 156.15 383.44C156.304 384.51 156.157 385.602 155.725 386.595C155.003 387.574 154.008 388.322 152.861 388.748C143.111 393.773 135.298 401.823 130.622 411.662C129.076 414.946 128.237 419.554 131.276 421.568L160.974 395.726C163.168 394.037 165.016 391.95 166.42 389.577C167.453 387.188 168.047 384.636 168.173 382.04L169.643 368.463C170.024 364.995 170.427 361.442 172.017 358.33C175.285 351.977 185.086 351.439 190.858 347.563C193.189 346.023 195.519 344.333 198.253 343.687C201.814 342.857 205.506 343.945 209.013 344.979C217.137 347.369 232.21 349.458 219.054 359.299C215.645 361.84 211.529 363.466 208.523 366.47C202.184 372.78 203.306 384.775 210.701 389.793C213.903 387.23 214.828 382.837 217.007 379.381C221.668 371.94 231.437 369.518 237.895 363.542C240.236 361.388 242.142 358.739 244.745 356.887C251.9 351.827 263.259 353.571 271.645 352.171C283.211 350.244 294.101 347.057 303.903 340.435C314.935 332.984 324.029 319.417 319.411 307.056C338.753 308.983 354.98 288.385 353.259 269.24C351.538 250.096 336.531 234.246 319.313 225.309C301.719 216.24 281.693 212.851 262.05 215.618C257.694 216.253 253.207 217.19 248.796 216.695C243.405 216.07 238.548 213.357 233.637 211.074C200.268 195.558 158.186 200.447 129.359 223.177C127.3 224.803 125.22 226.558 122.683 227.247C120.364 227.737 117.966 227.737 115.648 227.247C95.2058 224.178 72.4226 217.653 55.2917 229.088C47.3742 234.375 44.9783 243.161 38.4221 249.32C29.3067 257.794 18.0349 261.585 10.5095 272.309Z" fill="#D3D3D3"/>
</g>
<path d="M365.075 2.75648C365.801 20.5228 365.703 38.2891 364.781 56.0555C363.859 73.8218 362.149 91.4301 359.652 108.881C357.118 126.475 353.793 143.932 349.676 161.254C345.559 178.575 340.666 195.666 334.995 212.528C332.186 220.884 329.187 229.171 326 237.39C324.381 241.575 322.711 245.742 320.99 249.891C320.206 251.797 319.487 253.768 318.551 255.609C318.263 256.193 317.896 256.736 317.462 257.224C316.939 257.784 316.579 257.536 317.298 257.892C318.017 258.247 318.115 258.871 318.115 259.561C318.115 259.259 317.919 259.668 318.115 259.464C318.311 259.259 318.028 259.464 318.039 259.464C317.877 259.575 317.696 259.655 317.505 259.701C317.211 259.701 314.75 257.795 314.88 258.495C315.079 259.18 315.541 259.762 316.168 260.114C316.796 260.466 317.537 260.561 318.235 260.379C318.925 260.178 319.508 259.72 319.862 259.1C320.216 258.481 320.312 257.75 320.13 257.062C320.049 256.616 319.874 256.191 319.616 255.815C319.358 255.44 319.022 255.123 318.632 254.884C318.242 254.645 317.805 254.49 317.35 254.43C316.895 254.369 316.432 254.404 315.991 254.532C315.245 254.814 314.575 255.264 314.036 255.848C313.497 256.431 313.104 257.131 312.887 257.892C312.598 258.721 312.603 259.623 312.902 260.45C313.201 261.276 313.776 261.976 314.532 262.436C315.517 262.919 316.626 263.096 317.715 262.945C318.803 262.793 319.82 262.319 320.631 261.585C322.109 260.199 323.23 258.481 323.898 256.578C324.845 254.36 325.771 252.131 326.697 249.902C328.526 245.445 330.305 240.962 332.033 236.454C338.916 218.429 344.902 200.103 349.992 181.475C355.081 162.847 359.238 144.033 362.462 125.032C365.693 106.052 368.001 86.9401 369.388 67.695C370.775 48.45 371.196 29.1978 370.651 9.93843C370.586 7.52652 370.499 5.12528 370.401 2.71337C370.27 -0.732222 364.825 -0.753757 364.956 2.71337L365.075 2.75648Z" fill="#A4CDFF"/>
<path d="M82.8123 2.60568C82.5292 20.049 81.411 37.4528 79.458 54.8171C77.5049 72.0451 74.7278 89.1833 71.1267 106.232C67.4964 123.395 63.064 140.357 57.8292 157.119C52.5945 173.88 46.601 190.283 39.8488 206.326C33.1111 222.37 25.5966 238.069 17.3052 253.423C16.2742 255.347 15.2251 257.263 14.1578 259.173C12.4806 262.22 17.1745 264.934 18.8626 261.897C27.4226 246.457 35.2203 230.635 42.2556 214.434C49.291 198.233 55.5676 181.687 61.0855 164.796C66.5163 148.106 71.1484 131.194 74.9819 114.06C78.8518 96.7887 81.8793 79.3669 84.0647 61.7944C86.2501 44.2219 87.6005 26.6709 88.116 9.14148C88.1814 6.98798 88.2249 4.83455 88.2576 2.60568C88.3121 -0.86144 82.8668 -0.86144 82.8123 2.60568Z" fill="#A4CDFF"/>
<path opacity="0.89" d="M7.36213 266.731C-0.664264 278.167 -3.13644 294.522 5.0642 305.85C9.42045 311.944 16.3251 315.863 23.306 318.771C39.1242 325.405 56.3976 327.922 73.4791 326.082C78.3363 325.554 84.2935 325.134 86.9944 329.14C88.0834 330.798 88.3557 332.865 89.0309 334.739C90.8279 339.724 95.5653 343.062 100.216 345.635C127.039 360.365 162.151 358.912 187.635 342.018C189.965 340.478 192.296 338.787 195.029 338.141C198.591 337.312 202.282 338.411 205.789 339.433C237.198 348.661 273.627 353.173 300.69 334.9C311.722 327.438 320.816 313.871 316.198 301.521C335.54 303.448 351.767 282.861 350.046 263.706C348.326 244.55 333.329 228.711 316.111 219.785C298.513 210.718 278.484 207.329 258.837 210.094C254.481 210.73 250.005 211.667 245.584 211.171C240.193 210.547 235.336 207.823 230.424 205.54C197.066 190.024 154.974 194.912 126.146 217.642C124.088 219.268 122.008 221.024 119.47 221.723C117.151 222.208 114.754 222.208 112.435 221.723C91.9932 218.665 69.2209 212.13 52.0899 223.565C44.1615 228.862 41.7765 237.638 35.2094 243.797C26.1593 252.217 14.8984 256.007 7.36213 266.731Z" fill="url(#paint0_linear)"/>
<g style="mix-blend-mode:multiply" opacity="0.66">
<path d="M233.201 229.099C209.35 226.461 185.282 228.69 161.323 230.919C149.997 230.09 137.472 229.616 126.353 231.909C115.196 234.184 104.219 237.25 93.5069 241.083C90.2397 242.257 86.9072 243.549 84.2935 245.821C81.6797 248.093 81.8322 248.448 82.4529 251.84C79.1858 253.993 79.8392 259.291 82.7688 261.832C85.6983 264.373 89.8912 264.826 93.7901 264.933C98.1463 265.062 106.772 262.661 110.66 264.018C115.103 265.547 114.308 266.171 117.259 271.125C122.788 280.686 126.782 291.039 129.097 301.812C132.06 314.657 133.835 327.804 137.897 340.349C139.052 343.913 140.075 349.296 140.968 352.925L151.663 354.615C153.796 330.113 163.876 306.947 180.403 288.568C185.849 282.57 192.209 276.971 200.006 274.764C207.804 272.557 217.366 274.592 221.853 281.311C224.674 285.521 225.12 290.818 225.207 295.868C225.305 307.252 223.596 318.581 220.143 329.441C219.185 332.445 218.085 335.557 218.564 338.68C219.043 341.802 221.755 344.839 224.913 344.462C231.394 321.779 240.693 299.977 252.597 279.555C258.336 269.714 266.319 261.52 277.646 258.634C284.507 256.89 291.673 256.309 298.338 253.95C300.657 253.132 303.162 251.797 303.783 249.45C305.961 240.965 279.53 234.763 273.736 233.514C260.482 230.596 246.662 230.585 233.201 229.099Z" fill="#41CEB3"/>
</g>
<path d="M192.83 362.293C191.664 366.04 192.481 370.078 193.309 373.911L195.487 384.021C196.304 387.812 197.545 392.151 201.117 393.712C202.292 394.167 203.548 394.379 204.809 394.337C208.403 394.337 212.433 392.851 213.707 389.513C214.796 386.735 213.652 383.634 212.476 380.899C209.528 374.072 206.261 367.407 202.675 360.904C202.349 360.21 201.882 359.591 201.302 359.084C199.255 357.555 193.559 359.956 192.83 362.293Z" fill="#199158"/>
<path d="M123.707 407.99C122.152 409.854 120.96 411.986 120.189 414.278C119.813 415.43 119.746 416.659 119.995 417.844C120.243 419.029 120.798 420.13 121.605 421.04C122.883 422.176 124.517 422.845 126.233 422.935C132.626 423.581 138.79 419.619 142.471 414.386C146.152 409.153 147.829 402.789 149.289 396.566C150.89 389.718 145.216 381.244 138.398 387.489C136.22 389.535 135 393.583 133.181 396.103C130.176 400.141 126.745 403.92 123.707 407.99Z" fill="#199158"/>
<path d="M197.196 380.016C195.435 375.966 194.018 371.777 192.96 367.494C192.742 366.611 192.524 365.717 192.328 364.813C192.189 367.863 192.52 370.916 193.308 373.868C194.038 377.238 194.757 380.609 195.487 383.979C196.303 387.769 197.545 392.108 201.117 393.669C202.292 394.124 203.548 394.337 204.809 394.294H205.658C201.89 390.202 199.244 384.722 197.196 380.016Z" fill="#195C58"/>
<path d="M148.417 389.19C147.02 395.151 144.301 400.73 140.456 405.524C140.043 406.17 139.629 406.816 139.204 407.441C135.449 413.234 130.817 418.423 125.471 422.828L126.233 422.935C132.626 423.581 138.79 419.619 142.482 414.386C146.174 409.153 147.829 402.789 149.289 396.566C149.845 394.08 149.538 391.482 148.417 389.19Z" fill="#195C58"/>
<path d="M98.7889 250.128C93.6268 255.932 85.2628 258.742 78.3581 257.041C77.8507 256.954 77.3786 256.726 76.9968 256.384C76.2562 255.598 76.6265 254.23 77.1819 253.154C79.0878 249.568 82.6272 247.048 86.0033 244.712C89.3794 242.375 106.282 227.796 108.209 235.377C108.895 238.069 106.423 242.505 105.28 245.067C104.539 246.704 103.526 249.934 101.838 250.946C101.207 251.312 97.3405 251.818 98.7889 250.128Z" fill="#DDC69B"/>
<path d="M301.202 239.953C302.879 241.589 304.469 243.754 303.957 246.241C303.446 248.728 300.777 250.893 298.153 251.248C296.889 251.372 295.613 251.246 294.399 250.876C293.185 250.506 292.058 249.9 291.085 249.094C289.996 248.308 288.514 247.382 287.404 248.373C287.858 248.808 288.215 249.333 288.452 249.914C288.688 250.494 288.799 251.118 288.776 251.743C288.558 253.046 286.663 254.166 285.89 253.207C283.973 250.311 284.256 246.23 282.481 243.226C281.033 240.782 277.755 238.919 277.907 235.689C278.059 232.459 281.414 230.52 284.539 230.585C290.017 230.682 297.728 236.496 301.202 239.953Z" fill="#DDC69B"/>
<path d="M240.323 238.284C239.181 234.422 237.188 230.859 234.486 227.85C234.183 227.435 233.794 227.088 233.345 226.832C232.897 226.576 232.398 226.416 231.883 226.364C230.88 226.538 229.974 227.066 229.335 227.85C217.736 238.715 198.46 239.102 183.485 240.103C174.686 240.696 163.882 240.642 156.825 234.623C154.647 232.803 152.697 230.456 149.92 230.004C146.294 229.412 143.092 232.276 140.663 235.021C136.307 239.953 132.038 245.014 129.381 250.968C127.3 255.609 124.404 259.647 122.846 264.567C120.619 271.561 118.801 278.676 117.401 285.876C114.602 299.921 113.556 314.251 114.286 328.548C114.982 340.516 117.403 352.325 121.474 363.617C122.672 366.923 133.269 393.884 136.95 393.163C140.348 392.498 143.83 392.353 147.274 392.732C144.301 369.335 143.745 345.28 149.79 322.485C155.235 300.369 168.238 282.441 184.847 267.324C194.997 286.468 198.079 306.033 197.828 327.438C197.533 339.123 195.635 350.714 192.187 361.894L205.256 368.01C214.611 355.089 222.011 340.888 227.222 325.856C234.595 304.59 241.38 283.798 242.229 261.025C242.567 253.487 242.534 245.39 240.323 238.284Z" fill="url(#paint1_linear)"/>
<g style="mix-blend-mode:multiply">
<path style="mix-blend-mode:multiply" d="M149.049 325.5C147.525 327.934 146.098 330.432 144.802 333.037C143.985 334.663 143.201 336.268 142.471 337.969C142.145 338.712 141.829 339.476 141.513 340.23C141.339 340.65 141.164 341.081 141.001 341.501L140.816 341.996C138.429 348.453 136.7 355.13 135.654 361.927C135.501 362.906 135.371 363.897 135.251 364.898C135.251 365.264 134.989 367.612 135.098 366.212C134.979 367.838 134.848 369.442 134.783 371.079C134.657 374.555 134.734 378.035 135.011 381.502C135.142 383.171 135.327 384.84 135.567 386.487C135.632 386.961 135.708 387.424 135.784 387.887V387.962C135.926 388.684 136.068 389.394 136.22 390.116C136.8 391.033 137.151 392.074 137.244 393.152C140.554 392.537 143.937 392.41 147.285 392.775C144.453 370.368 143.822 347.39 149.049 325.5Z" fill="url(#paint2_linear)"/>
</g>
<g style="mix-blend-mode:multiply">
<path style="mix-blend-mode:multiply" d="M157.021 249.256C168.286 253.027 180.185 254.599 192.056 253.886C208.893 252.809 225.665 250.946 241.87 245.584C241.564 243.112 241.046 240.67 240.323 238.284C239.181 234.422 237.188 230.859 234.486 227.85C234.183 227.435 233.794 227.088 233.346 226.832C232.897 226.576 232.399 226.416 231.883 226.364C230.88 226.538 229.974 227.066 229.335 227.85C217.736 238.715 198.46 239.102 183.485 240.103C174.686 240.696 163.882 240.642 156.825 234.623C154.146 232.232 150.367 228.238 146.359 230.477C144.595 231.468 140.01 237.584 139.825 239.35C139.64 241.116 141.535 242.58 143.244 243.506C147.678 245.774 152.284 247.697 157.021 249.256Z" fill="url(#paint3_linear)"/>
</g>
<g style="mix-blend-mode:multiply">
<path style="mix-blend-mode:multiply" d="M220.459 335.352C213.086 338.497 204.014 338.109 197.589 333.199C196.836 342.956 195.01 352.603 192.143 361.97L205.212 368.086C213.009 357.315 219.453 345.647 224.401 333.339C223.132 334.093 221.815 334.765 220.459 335.352Z" fill="url(#paint4_linear)"/>
</g>
<path d="M93.8663 237.821L93.9426 237.702C98.8107 236.712 108.449 223.963 111.128 221.325C121.899 210.741 127.159 198.207 132.441 184.63C138.442 169.221 144.824 153.727 154.375 139.826C163.926 125.925 189.769 98.9097 208.076 105.769C209.167 106.246 210.216 106.812 211.213 107.459C216.479 110.409 222.561 111.62 228.572 110.915C232.798 110.485 236.958 108.687 241.129 109.214C252.859 110.689 260.112 124.87 264.566 134.162C269.359 144.545 272.775 155.496 274.727 166.745C277.994 184.21 277.057 202.6 282.448 219.29C283.853 223.651 285.367 228.162 288.689 231.199C286.113 234.935 283.027 238.301 279.519 241.202C269.488 236.012 259.48 227.689 255.265 217.018C247.969 198.509 246.553 178.664 244.799 158.454C244.092 150.475 242.992 142.001 237.633 136.488C240.106 139.029 240.258 147.912 240.846 151.563C241.685 156.645 242.284 161.792 242.708 166.982C243.471 176.156 244.233 185.717 244.342 194.977L244.799 233.977C240.323 235.926 235.161 235.43 230.544 236.464C208.033 241.536 184.008 246.618 162.368 241.137C156.993 239.893 151.848 237.821 147.121 235C143.593 232.76 143.931 233.255 144.758 229.347C145.433 226.203 147.601 222.639 148.951 219.656C155.573 204.818 162.946 190.25 170.427 175.736C177.321 162.373 184.836 150.97 188.484 136.208C180.498 149.847 172.511 163.507 164.525 177.189C160.691 183.747 156.836 190.315 152.545 196.635C141.293 213.186 127.303 227.747 111.161 239.705C110.202 240.503 109.091 241.104 107.893 241.471C106.487 241.696 105.046 241.54 103.722 241.019L93.6703 237.993L93.8663 237.821Z" fill="#FC9E2D"/>
<path d="M93.8663 237.821L93.9426 237.702C98.8107 236.712 108.449 223.963 111.128 221.325C121.899 210.741 127.159 198.207 132.441 184.63C138.442 169.221 144.824 153.727 154.375 139.826C163.926 125.925 189.769 98.9097 208.076 105.769C209.167 106.246 210.216 106.812 211.213 107.459C216.479 110.409 222.561 111.62 228.572 110.915C232.798 110.485 236.958 108.687 241.129 109.214C252.859 110.689 260.112 124.87 264.566 134.162C269.359 144.545 272.775 155.496 274.727 166.745C277.994 184.21 277.057 202.6 282.448 219.29C283.853 223.651 285.367 228.162 288.689 231.199C286.113 234.935 283.027 238.301 279.519 241.202C269.488 236.012 259.48 227.689 255.265 217.018C247.969 198.509 246.553 178.664 244.799 158.454C244.092 150.475 242.992 142.001 237.633 136.488C240.106 139.029 240.258 147.912 240.846 151.563C241.685 156.645 242.284 161.792 242.708 166.982C243.471 176.156 244.233 185.717 244.342 194.977L244.799 233.977C240.323 235.926 235.161 235.43 230.544 236.464C208.033 241.536 184.008 246.618 162.368 241.137C156.993 239.893 151.848 237.821 147.121 235C143.593 232.76 143.931 233.255 144.758 229.347C145.433 226.203 147.601 222.639 148.951 219.656C155.573 204.818 162.946 190.25 170.427 175.736C177.321 162.373 184.836 150.97 188.484 136.208C180.498 149.847 172.511 163.507 164.525 177.189C160.691 183.747 156.836 190.315 152.545 196.635C141.293 213.186 127.303 227.747 111.161 239.705C110.202 240.503 109.091 241.104 107.893 241.471C106.487 241.696 105.046 241.54 103.722 241.019L93.6703 237.993L93.8663 237.821Z" fill="url(#paint5_linear)"/>
<path style="mix-blend-mode:multiply" d="M240.389 140.181C240.419 140.126 240.444 140.068 240.465 140.009L240.825 139.255C241.336 139.438 241.837 139.643 242.338 139.848L242.6 139.955L242.883 140.128L243.809 140.677C244.645 141.213 245.446 141.803 246.205 142.443L246.564 142.744L246.749 142.927L247.718 144.004C248.383 144.736 248.971 145.522 249.57 146.297L249.864 146.663L250.038 146.986C250.223 147.32 250.408 147.654 250.583 147.988C251.073 148.925 251.519 149.872 251.933 150.841C252.664 152.526 253.304 154.247 253.85 155.999C254.126 156.846 254.376 157.707 254.601 158.583L254.993 160.187C255.843 163.902 256.453 167.725 257.008 171.493C258.152 179.45 259.045 187.451 261.048 195.182C265.052 210.171 271.791 224.311 280.935 236.906C281.39 237.54 282.006 238.045 282.721 238.37C281.697 239.382 280.63 240.351 279.519 241.256C269.489 236.076 259.48 227.753 255.266 217.083C247.969 198.573 246.553 178.729 244.8 158.518C244.233 152.144 243.417 145.414 240.389 140.181Z" fill="url(#paint6_linear)"/>
<path style="mix-blend-mode:multiply" d="M93.9426 237.702C96.4147 237.196 100.107 233.665 103.505 229.971C110.593 224.887 117.344 219.359 123.718 213.422C133.183 204.762 141.799 195.237 149.452 184.974C153.237 180.011 156.704 174.818 159.831 169.426C161.16 167.046 162.412 164.624 163.73 162.244C164.59 160.672 165.494 159.132 166.376 157.582C166.417 157.499 166.464 157.42 166.518 157.345L167.302 156.053C167.803 155.245 168.304 154.438 168.816 153.641C170.853 150.408 173.128 147.327 175.622 144.424C175.927 144.068 176.243 143.735 176.559 143.347L176.657 143.25C177.256 142.69 177.844 142.173 178.476 141.592C179.126 141.167 179.751 140.707 180.349 140.214L181.046 139.837L181.612 139.632C181.725 139.609 181.835 139.573 181.939 139.525L182.429 139.438H182.973L183.311 139.578C183.456 139.687 183.63 139.751 183.812 139.761C183.943 139.837 184.084 139.901 184.226 139.966C184.743 140.243 185.302 140.436 185.881 140.537L164.492 177.06C160.659 183.617 156.803 190.185 152.512 196.506C141.26 213.057 127.27 227.617 111.128 239.576C110.169 240.374 109.058 240.975 107.861 241.342C106.455 241.567 105.013 241.411 103.69 240.89L93.6376 237.864L93.7683 237.724L93.9426 237.702Z" fill="url(#paint7_linear)"/>
<path style="mix-blend-mode:multiply" d="M147.688 222.262H148.777C150.236 222.262 151.674 222.316 153.133 222.423C155.878 222.606 158.578 222.929 161.334 223.155C166.587 223.611 171.88 223.292 177.038 222.208C194.463 218.515 208.621 204.496 218.782 190.013C225.461 180.639 230.705 170.343 234.345 159.455C235.161 156.925 235.858 154.384 236.523 151.832C236.784 150.895 237.034 149.958 237.296 149.011C237.405 148.602 237.525 148.192 237.644 147.783C237.644 147.697 237.949 146.706 237.982 146.642C238.483 145.059 239.071 143.465 239.659 141.904C240.291 145.35 240.487 149.441 240.835 151.595C241.674 156.677 242.273 161.824 242.698 167.014C243.46 176.188 244.222 185.749 244.331 195.009L244.799 233.977C240.323 235.926 235.161 235.43 230.544 236.464C208.033 241.536 184.008 246.618 162.368 241.137C156.993 239.893 151.848 237.821 147.122 235C143.593 232.76 143.931 233.255 144.758 229.347C145.448 226.879 146.432 224.501 147.688 222.262Z" fill="url(#paint8_linear)"/>
<defs>
<linearGradient id="paint0_linear" x1="6.39664e-05" y1="276.153" x2="350.177" y2="276.153" gradientUnits="userSpaceOnUse">
<stop stop-color="#C9DDFF"/>
<stop offset="1" stop-color="#74DFBC"/>
</linearGradient>
<linearGradient id="paint1_linear" x1="101.486" y1="243.708" x2="211.989" y2="333.459" gradientUnits="userSpaceOnUse">
<stop stop-color="#974FA9"/>
<stop offset="0.82" stop-color="#0A006A"/>
</linearGradient>
<linearGradient id="paint2_linear" x1="134.185" y1="359.612" x2="150.367" y2="359.011" gradientUnits="userSpaceOnUse">
<stop stop-color="#183ED0"/>
<stop offset="0.82" stop-color="#0A006A"/>
</linearGradient>
<linearGradient id="paint3_linear" x1="-25074.5" y1="-26121.4" x2="-15535.2" y2="-26121.4" gradientUnits="userSpaceOnUse">
<stop stop-color="#183ED0"/>
<stop offset="0.82" stop-color="#0A006A"/>
</linearGradient>
<linearGradient id="paint4_linear" x1="-6360.1" y1="-29299.9" x2="-5372.69" y2="-29299.9" gradientUnits="userSpaceOnUse">
<stop stop-color="#183ED0"/>
<stop offset="0.82" stop-color="#0A006A"/>
</linearGradient>
<linearGradient id="paint5_linear" x1="297.44" y1="178.643" x2="109.331" y2="148.202" gradientUnits="userSpaceOnUse">
<stop stop-color="#F7F2A7"/>
<stop offset="0.01" stop-color="#08885E"/>
<stop offset="0.53" stop-color="#007B64"/>
<stop offset="1" stop-color="#9ABF00"/>
</linearGradient>
<linearGradient id="paint6_linear" x1="-12438.9" y1="-101977" x2="-4904.63" y2="-101977" gradientUnits="userSpaceOnUse">
<stop stop-color="#F7F2A7"/>
<stop offset="0.01" stop-color="#08885E"/>
<stop offset="0.53" stop-color="#007B64"/>
<stop offset="1" stop-color="#9ABF00"/>
</linearGradient>
<linearGradient id="paint7_linear" x1="-27528.7" y1="-101554" x2="-11125" y2="-101554" gradientUnits="userSpaceOnUse">
<stop stop-color="#F7F2A7"/>
<stop offset="0.01" stop-color="#08885E"/>
<stop offset="0.53" stop-color="#007B64"/>
<stop offset="1" stop-color="#9ABF00"/>
</linearGradient>
<linearGradient id="paint8_linear" x1="-29982.8" y1="-101173" x2="-12089.3" y2="-101173" gradientUnits="userSpaceOnUse">
<stop stop-color="#F7F2A7"/>
<stop offset="0.01" stop-color="#08885E"/>
<stop offset="0.53" stop-color="#007B64"/>
<stop offset="1" stop-color="#9ABF00"/>
</linearGradient>
</defs>
</svg>
