<svg width="101" height="54" viewBox="0 0 101 54" fill="none" xmlns="http://www.w3.org/2000/svg">
<g clip-path="url(#clip0)">
<path d="M10.2413 22.9582H10.4705C10.9831 21.6888 14.9406 11.8804 16.9679 7.20004H13.4493L13.3755 10.5492C12.525 13.2695 10.0899 18.6521 10.0899 18.6521C9.16556 16.1132 5.53817 10.1055 7.27807 7.21162H0C1.07579 9.36853 6.03529 20.0103 7.16545 22.966" fill="#483F96"/>
<path d="M53.0205 8.47713V7.08806H48.6669V1.91379H47.7698C46.659 4.35623 44.6084 6.98774 41.9209 7.16137V8.53501H43.9987V9.93179C43.9987 12.6328 43.9327 15.3916 43.9987 18.0733C44.0155 19.0524 44.1939 20.0222 44.5269 20.944C45.1793 22.7151 46.962 23.5987 48.9621 23.3286C51.067 23.0469 52.7487 21.3414 52.9817 19.9292C52.2896 20.0769 51.5893 20.1838 50.8845 20.2495C49.7194 20.2919 48.8222 19.7016 48.7951 18.517C48.7951 17.9151 48.7718 17.3131 48.7679 16.7074V8.47713H53.0205Z" fill="#483F96"/>
<path d="M25.5122 2.02179C25.5316 3.14462 24.0364 4.0861 22.1877 4.10925C20.2653 4.13626 18.6924 3.19864 18.6924 2.02951C18.6924 0.860375 20.1837 0.00764428 22.0829 -7.27606e-05C23.982 -0.0077898 25.4928 0.891248 25.5122 2.02179Z" fill="#483F96"/>
<path d="M33.5474 12.9261C33.5474 12.8027 33.6834 12.0966 33.6834 12.0966C33.7804 11.0123 35.2368 10.1673 37.0816 10.1673C38.6351 10.1673 39.9128 10.7615 40.34 11.595V7.18081C37.8467 7.18081 35.1397 7.62454 33.6173 10.04V7.19238H33.5785C33.6212 7.19238 28.2151 7.16537 28.2151 7.16537C29.3044 12.3746 29.3123 17.7498 28.2384 22.9622H34.2387C33.5341 19.6658 33.3014 16.2871 33.5474 12.9261Z" fill="#483F96"/>
<path d="M24.4908 22.9582V7.13828H19.3643C20.4554 12.3473 20.4633 17.7229 19.3876 22.9351L24.4908 22.9582Z" fill="#483F96"/>
<path d="M71.0331 22.908C70.6179 20.9063 70.3582 18.8759 70.2564 16.8347V7.16138H65.5454V19.1884V19.4508C64.4308 20.1607 63.0133 20.6855 61.685 20.2225C61.1466 20.0418 60.6813 19.6934 60.358 19.2291C60.0348 18.7648 59.8709 18.2092 59.8908 17.645C59.8675 16.1787 59.8908 14.7125 59.8908 13.2424V7.16138H55.3274V18.2508C55.3274 18.2508 55.3274 18.2508 55.3274 18.2739C55.4361 20.4617 56.3022 22.2173 58.5276 22.9775C60.8927 23.7839 63.0366 23.3633 64.8192 21.5344C65.0561 21.2913 65.2891 21.025 65.5416 20.7434V22.225V22.9157L71.0331 22.908Z" fill="#483F96"/>
<path d="M25.3372 40.8232V37.1036C25.3372 37.0727 25.3372 36.5479 25.3372 36.2856C25.2285 33.9975 23.9896 32.3036 22.1177 31.7827C18.9136 30.8913 16.5406 32.6007 15.2008 34.3023C14.925 33.6551 14.4917 33.0861 13.94 32.6463C13.3882 32.2065 12.7351 31.9098 12.0394 31.7827C11.6401 31.6934 11.233 31.643 10.8238 31.6322C10.3544 31.6201 9.88544 31.6707 9.42957 31.7827C8.65235 31.9573 7.91883 32.2867 7.27334 32.751C6.62785 33.2152 6.08379 33.8046 5.67402 34.4836V34.3177V31.7711H0.36499V31.7942C0.85196 34.1652 1.12233 36.575 1.1728 38.9942C1.23041 41.8717 0.969939 44.7468 0.396058 47.5679H5.6546V36.6483C5.6546 36.6483 5.6546 34.3138 8.33436 34.3138C10.1791 34.3138 11.0141 35.2862 11.0141 36.4399V47.5679H16.3115C15.8616 45.3493 15.6018 43.0969 15.5348 40.8347V39.4534L15.5153 36.4901C15.5153 34.7421 17.4572 34.3138 18.1912 34.3138C19.135 34.3138 20.871 34.719 20.871 36.629V47.5602H26.1179C25.6664 45.3405 25.4053 43.0867 25.3372 40.8232Z" fill="#483F96"/>
<path d="M42.5423 43.8637C42.4879 41.4714 42.5423 39.0791 42.4996 36.6869C42.4374 33.9319 40.8839 32.3769 38.1848 31.7441C35.1399 31.0303 29.2173 32.8129 29.1784 32.8322C29.1396 32.8515 29.1784 32.8592 29.1784 32.8708V36.9261C31.1149 35.5948 33.1175 34.3611 35.1788 33.2296C36.4099 32.5968 37.8974 32.9711 37.8974 34.3872V38.3306C37.4507 38.2496 37.0002 38.1763 36.7711 38.1415C34.5962 37.7865 32.4563 37.7557 30.4639 38.8824C29.5356 39.3657 28.7944 40.1407 28.356 41.0865C27.9176 42.0323 27.8067 43.0956 28.0405 44.1107C28.2463 45.1287 28.7767 46.0538 29.5532 46.7488C30.3297 47.4438 31.3109 47.8717 32.3514 47.9692C34.6273 48.2431 36.4604 47.402 37.9245 45.6849C39.0664 47.591 40.2781 47.8997 42.0335 47.8997C43.0588 47.8997 44.7521 47.3132 45.1172 45.492C43.719 46.202 42.6277 46.1981 42.5423 43.8637ZM36.4332 45.3377C35.004 45.82 33.1631 45.0599 32.6543 43.6361C32.0718 42.0155 33.1631 40.4374 34.6622 39.9049C35.7158 39.5558 36.8023 39.314 37.9051 39.1833V40.0785V43.5936C37.9051 44.6238 37.008 45.1563 36.4332 45.3377Z" fill="#483F96"/>
<path d="M61.2539 33.9627C60.559 33.0083 59.5862 32.2887 58.4667 31.9009C57.3472 31.5132 56.1349 31.4759 54.9934 31.7942L54.8963 31.8212H54.8458C53.7316 32.1794 52.7013 32.7567 51.8165 33.519V31.9138C51.8165 31.8212 51.8165 31.7247 51.8165 31.6283H46.5502C47.2154 36.9543 47.4 42.3288 47.1017 47.6874C46.987 49.8028 46.7275 51.908 46.325 53.9884H52.6399C52.0877 51.543 51.8141 49.0437 51.8243 46.5376V46.1517C52.0651 46.3524 52.4729 46.6958 52.601 46.7768C53.221 47.2566 53.9305 47.6096 54.6885 47.8153C55.4466 48.021 56.2382 48.0754 57.0176 47.9753C57.7969 47.8752 58.5485 47.6226 59.229 47.2321C59.9095 46.8416 60.5054 46.321 60.9821 45.7003C63.3744 42.7485 63.522 37.0109 61.2539 33.9627ZM57.9411 41.618C57.6499 44.4154 57.0013 45.9125 54.4031 45.9125C52.9739 45.9125 51.8165 44.9672 51.8165 43.5665V43.5472V36.5556C51.8165 35.155 52.9816 34.31 54.4031 34.31C57.1955 34.31 57.7198 36.5633 57.9217 38.9942C57.9429 39.1282 57.9533 39.2637 57.9528 39.3993C57.98 39.8238 57.9955 40.2868 57.9955 40.7923C57.9955 41.1588 57.9411 41.618 57.9411 41.618Z" fill="#483F96"/>
<path d="M83.4959 20.0875C82.285 20.1504 81.0832 19.8492 80.0472 19.2232C78.2995 18.193 77.9383 16.5686 77.9267 14.7281H88.1681C88.3273 10.8695 86.2262 7.87146 82.9833 7.12676C77.2276 5.80329 72.5788 9.56535 72.7458 15.411C72.8546 19.2117 74.9479 22.0245 78.4277 23.0355C79.3208 23.2969 80.2509 23.4116 81.1813 23.375C81.4947 22.4403 81.9969 21.579 82.6571 20.8438C82.9129 20.5669 83.1937 20.3137 83.4959 20.0875ZM80.89 8.22645C80.89 8.22645 84.1057 7.98336 83.8727 13.3853H77.9034C77.6354 7.86374 80.89 8.22645 80.89 8.22645Z" fill="#4B3F96"/>
<path d="M97.687 24.6868L97.656 24.7524L97.5861 24.8913C97.5006 25.0611 97.4074 25.2347 97.3103 25.4045C97.0945 25.7814 96.8518 26.1425 96.5841 26.4849C96.0917 27.1062 95.5213 27.6625 94.8869 28.1402C94.7471 28.2443 94.5723 28.364 94.3587 28.4952C94.338 27.4407 94.1828 26.3931 93.8965 25.3775C93.1897 22.9852 91.6595 21.2064 89.5856 20.3614C88.8959 20.084 88.1588 19.9412 87.4146 19.9408C86.6858 19.9349 85.9638 20.0805 85.295 20.3682C84.6261 20.656 84.0253 21.0795 83.5309 21.6116C82.8037 22.416 82.3075 23.3999 82.0943 24.4602C81.8811 25.5205 81.9588 26.6183 82.3192 27.6386C82.7269 28.6993 83.3742 29.653 84.2111 30.4263C85.048 31.1996 86.0522 31.7718 87.1467 32.099C88.0166 32.361 88.9213 32.4911 89.8303 32.4849C90.2758 32.4839 90.7208 32.4542 91.1624 32.3961C90.9108 33.1709 90.5803 33.9182 90.176 34.6263C88.506 37.5511 85.799 39.4225 82.7464 39.762C82.3956 39.8008 82.043 39.8201 81.69 39.8199C81.8454 39.5382 81.9852 39.2527 82.1134 38.9672C82.8901 37.2771 83.6669 34.6958 83.0377 32.0218C82.7876 30.9093 82.264 29.8757 81.5138 29.0132C80.7636 28.1507 79.8101 27.4862 78.7384 27.0791C78.1754 26.8776 77.5815 26.7745 76.983 26.7743C76.1809 26.781 75.389 26.954 74.6581 27.2822C73.9271 27.6105 73.2732 28.0867 72.7381 28.6804C71.9723 29.5264 71.4312 30.549 71.164 31.6554C70.8968 32.7618 70.9119 33.9169 71.2079 35.0161C71.9303 37.9331 74.1013 40.2906 77.1927 41.537C76.2877 42.4446 75.2713 43.2354 74.1673 43.8906C72.4779 44.9054 69.8952 46.1132 67.1766 46.1132C66.3865 46.1175 65.6005 46.0004 64.8464 45.7659C64.2971 45.5969 63.7809 45.3359 63.3201 44.9942C63.2932 44.977 63.2646 44.9628 63.2346 44.9517L61.5996 46.935C63.1747 48.1121 65.1055 48.723 67.0756 48.6675C69.2216 48.6177 71.3352 48.1373 73.2896 47.2553C75.8855 46.1419 78.1855 44.4445 80.0084 42.2971C80.2298 42.3318 80.4434 42.355 80.6453 42.3743C80.9871 42.4013 81.3289 42.4167 81.6667 42.4167C83.5657 42.3988 85.4345 41.9426 87.1255 41.0841C88.8166 40.2256 90.2837 38.9884 91.411 37.4701C92.7326 35.728 93.6431 33.7131 94.0752 31.5742C96.071 30.687 97.7895 29.2822 99.0502 27.5074C99.3427 27.0852 99.6024 26.6415 99.827 26.18L99.8503 26.1415C99.9551 25.9292 100.064 25.7093 100.153 25.4739C100.166 25.4339 100.172 25.3923 100.173 25.3505L97.7026 24.6405L97.687 24.6868ZM80.2492 36.6019C79.9337 37.6013 79.4815 38.553 78.9054 39.4302C77.2328 38.9732 75.7661 37.965 74.746 36.571C73.6663 35.0469 73.3051 33.2913 73.7789 31.8675C74.2333 30.517 75.4179 29.4868 76.6645 29.3633C76.7525 29.3576 76.8407 29.3576 76.9286 29.3633C78.2724 29.3633 79.4453 30.3781 80.0123 31.3813C81.0531 33.2103 80.6065 35.4366 80.2492 36.6019ZM91.6984 29.6566C91.2415 29.7728 90.7747 29.8464 90.3041 29.8765H89.8575C89.0949 29.904 88.3347 29.7765 87.6235 29.5019C86.9123 29.2272 86.265 28.8111 85.7213 28.2791C85.2086 27.7875 84.8481 27.1605 84.6823 26.4721C84.5165 25.7837 84.5522 25.0625 84.7854 24.3936C84.9749 23.8448 85.331 23.368 85.8047 23.0287C86.2783 22.6894 86.8462 22.5043 87.4302 22.499C87.5246 22.4933 87.6193 22.4933 87.7137 22.499C89.0691 22.6302 90.308 23.5871 91.0226 25.0611C91.6618 26.5095 91.8953 28.1026 91.6984 29.672V29.6566Z" fill="#B04FBC"/>
</g>
<defs>
<clipPath id="clip0">
<rect width="100.184" height="54" fill="white"/>
</clipPath>
</defs>
</svg>
